<mxfile host="Electron" agent="Mozilla/5.0 (Windows NT 10.0; Win64; x64) AppleWebKit/537.36 (KHTML, like Gecko) draw.io/24.7.17 Chrome/128.0.6613.36 Electron/32.0.1 Safari/537.36" version="24.7.17">
  <diagram name="Pagina-1" id="FgR-FPxRze2zWv_tm1EF">
    <mxGraphModel dx="568" dy="329" grid="1" gridSize="10" guides="1" tooltips="1" connect="1" arrows="1" fold="1" page="1" pageScale="1" pageWidth="827" pageHeight="1169" math="1" shadow="0">
      <root>
        <mxCell id="0" />
        <mxCell id="1" parent="0" />
        <mxCell id="d-_mGHvsqMj30hqIaPmG-1" value="ddd" style="ellipse;whiteSpace=wrap;html=1;fillColor=none;" vertex="1" parent="1">
          <mxGeometry x="280" y="240" width="40" height="40" as="geometry" />
        </mxCell>
        <mxCell id="d-_mGHvsqMj30hqIaPmG-6" style="edgeStyle=orthogonalEdgeStyle;rounded=0;orthogonalLoop=1;jettySize=auto;html=1;" edge="1" parent="1" source="d-_mGHvsqMj30hqIaPmG-2" target="d-_mGHvsqMj30hqIaPmG-3">
          <mxGeometry relative="1" as="geometry" />
        </mxCell>
        <mxCell id="d-_mGHvsqMj30hqIaPmG-12" value="\(u_2/y_2\)" style="edgeLabel;html=1;align=center;verticalAlign=middle;resizable=0;points=[];" vertex="1" connectable="0" parent="d-_mGHvsqMj30hqIaPmG-6">
          <mxGeometry x="-0.14" y="1" relative="1" as="geometry">
            <mxPoint as="offset" />
          </mxGeometry>
        </mxCell>
        <mxCell id="d-_mGHvsqMj30hqIaPmG-2" value="ood" style="ellipse;whiteSpace=wrap;html=1;fillColor=none;" vertex="1" parent="1">
          <mxGeometry x="400" y="240" width="40" height="40" as="geometry" />
        </mxCell>
        <mxCell id="d-_mGHvsqMj30hqIaPmG-7" style="edgeStyle=orthogonalEdgeStyle;rounded=0;orthogonalLoop=1;jettySize=auto;html=1;" edge="1" parent="1" source="d-_mGHvsqMj30hqIaPmG-3" target="d-_mGHvsqMj30hqIaPmG-4">
          <mxGeometry relative="1" as="geometry" />
        </mxCell>
        <mxCell id="d-_mGHvsqMj30hqIaPmG-13" value="\(u_3/y_3\)" style="edgeLabel;html=1;align=center;verticalAlign=middle;resizable=0;points=[];" vertex="1" connectable="0" parent="d-_mGHvsqMj30hqIaPmG-7">
          <mxGeometry x="-0.18" y="1" relative="1" as="geometry">
            <mxPoint as="offset" />
          </mxGeometry>
        </mxCell>
        <mxCell id="d-_mGHvsqMj30hqIaPmG-3" value="dod" style="ellipse;whiteSpace=wrap;html=1;fillColor=none;" vertex="1" parent="1">
          <mxGeometry x="520" y="240" width="40" height="40" as="geometry" />
        </mxCell>
        <mxCell id="d-_mGHvsqMj30hqIaPmG-8" style="edgeStyle=orthogonalEdgeStyle;rounded=1;orthogonalLoop=1;jettySize=auto;html=1;entryX=0.5;entryY=1;entryDx=0;entryDy=0;curved=0;" edge="1" parent="1" source="d-_mGHvsqMj30hqIaPmG-4" target="d-_mGHvsqMj30hqIaPmG-1">
          <mxGeometry relative="1" as="geometry">
            <Array as="points">
              <mxPoint x="660" y="300" />
              <mxPoint x="300" y="300" />
            </Array>
          </mxGeometry>
        </mxCell>
        <mxCell id="d-_mGHvsqMj30hqIaPmG-9" value="\(u_4/y_4\)" style="edgeLabel;html=1;align=center;verticalAlign=middle;resizable=0;points=[];" vertex="1" connectable="0" parent="d-_mGHvsqMj30hqIaPmG-8">
          <mxGeometry x="-0.04" y="-1" relative="1" as="geometry">
            <mxPoint as="offset" />
          </mxGeometry>
        </mxCell>
        <mxCell id="d-_mGHvsqMj30hqIaPmG-4" value="doo" style="ellipse;whiteSpace=wrap;html=1;fillColor=none;" vertex="1" parent="1">
          <mxGeometry x="640" y="240" width="40" height="40" as="geometry" />
        </mxCell>
        <mxCell id="d-_mGHvsqMj30hqIaPmG-5" style="edgeStyle=orthogonalEdgeStyle;rounded=0;orthogonalLoop=1;jettySize=auto;html=1;entryX=0;entryY=0.5;entryDx=0;entryDy=0;" edge="1" parent="1" source="d-_mGHvsqMj30hqIaPmG-1" target="d-_mGHvsqMj30hqIaPmG-2">
          <mxGeometry relative="1" as="geometry" />
        </mxCell>
        <mxCell id="d-_mGHvsqMj30hqIaPmG-11" value="\(u_1/y_1\)" style="edgeLabel;html=1;align=center;verticalAlign=middle;resizable=0;points=[];" vertex="1" connectable="0" parent="d-_mGHvsqMj30hqIaPmG-5">
          <mxGeometry x="0.07" y="-2" relative="1" as="geometry">
            <mxPoint as="offset" />
          </mxGeometry>
        </mxCell>
      </root>
    </mxGraphModel>
  </diagram>
</mxfile>
